<svg xmlns="http://www.w3.org/2000/svg" width="291.649" height="50" viewBox="0 0 291.649 50">
  <g id="Group_4" data-name="Group 4" transform="translate(-150 -137)">
    <path id="Path_1" data-name="Path 1" d="M245.848,146.752a9.443,9.443,0,0,1-2.924,7.062,10.714,10.714,0,0,1-14.529,0,9.443,9.443,0,0,1-2.925-7.062V138.6h20.378Zm-15.9,0a5.2,5.2,0,0,0,1.558,3.918,6.493,6.493,0,0,0,8.3,0,5.2,5.2,0,0,0,1.558-3.918v-3.493H229.952Z" transform="translate(-49.311 -1.045)" fill="#fff"/>
    <path id="Path_2" data-name="Path 2" d="M245.848,223.853H225.47V219.29h12.024l-8.47-5.16v-.515l8.47-5.16H230.58v-4.563h15.269v4.563l-8.868,5.419,8.868,5.417Z" transform="translate(-49.311 -43.706)" fill="#fff"/>
    <path id="Path_3" data-name="Path 3" d="M168.051,199.359a7.806,7.806,0,1,0-4.721-13.279h0a7.746,7.746,0,0,0-2.25,5.1,9.693,9.693,0,0,0-8.242,16.456,10.6,10.6,0,0,0,8.054,3.113c.373,0,.727-.008,1.057-.016.271-.007.531-.014.778-.014h.749v6.846h4.575v-6.846h8.108v-4.576h-8.108Zm-1.486-10.043h0a3.251,3.251,0,1,1-.952,2.3A3.23,3.23,0,0,1,166.566,189.315Zm-4.731,16.846c-2.013.051-3.906.1-5.761-1.757a5.131,5.131,0,1,1,7.257-7.256c.045.045.1.075.146.119v8.881h-.749C162.444,206.147,162.145,206.155,161.835,206.162Z" transform="translate(0 -30.571)" fill="#fff"/>
    <circle id="Ellipse_1" data-name="Ellipse 1" cx="3.186" cy="3.186" r="3.186" transform="translate(165.678 142.214)" fill="#fff"/>
    <g id="Group_3" data-name="Group 3" transform="translate(211.203 137)">
      <path id="Path_4" data-name="Path 4" d="M514.628,222.88l-2.334-2.334-2.83,2.829-1.955-1.955a4.638,4.638,0,1,0-6.962-.534,5.613,5.613,0,0,0,3.7,9.852,6.467,6.467,0,0,0,4.941-2.413l.273-.282,2.83,2.83,2.334-2.334-2.829-2.83Zm-11.7-4.74a1.325,1.325,0,1,1,1.325,1.325A1.326,1.326,0,0,1,502.925,218.141Zm1.325,9.3a2.333,2.333,0,0,1-.057-4.665l2.936,2.937-.329.34A3.284,3.284,0,0,1,504.25,227.438Z" transform="translate(-438.982 -186.993)" fill="#fff"/>
      <g id="Group_1" data-name="Group 1" transform="translate(0)">
        <path id="Path_5" data-name="Path 5" d="M339.657,154.777H335.45l-5.176-7.472v7.472h-3.7V138.6h3.7v7.024l4.946-7.024h4.206l-5.455,7.88Z" transform="translate(-326.575 -138.045)" fill="#fff"/>
        <path id="Path_6" data-name="Path 6" d="M367.728,158.488a2.615,2.615,0,0,0,2.774,1.617,2.866,2.866,0,0,0,2.218-.877l2.774,1.594a5.806,5.806,0,0,1-5.038,2.381,6.31,6.31,0,0,1-4.657-1.735,5.9,5.9,0,0,1-1.745-4.367A5.929,5.929,0,0,1,370.2,151a5.578,5.578,0,0,1,4.195,1.744,6.045,6.045,0,0,1,1.676,4.358,6.641,6.641,0,0,1-.139,1.386Zm-.069-2.587h4.969a2.3,2.3,0,0,0-2.45-1.827A2.344,2.344,0,0,0,367.658,155.9Z" transform="translate(-351.063 -146.147)" fill="#fff"/>
        <path id="Path_7" data-name="Path 7" d="M411.363,151a4.133,4.133,0,0,1,3.086,1.272,4.825,4.825,0,0,1,1.237,3.513v7.095h-3.467v-6.587a2.06,2.06,0,0,0-.567-1.559,2,2,0,0,0-1.444-.545,2.074,2.074,0,0,0-1.571.6,2.472,2.472,0,0,0-.578,1.78v6.308h-3.467V151.324h3.467v1.087A3.833,3.833,0,0,1,411.363,151Z" transform="translate(-377.55 -146.147)" fill="#fff"/>
        <path id="Path_8" data-name="Path 8" d="M450.637,151a4.134,4.134,0,0,1,3.086,1.272,4.826,4.826,0,0,1,1.236,3.513v7.095h-3.467v-6.587a2.06,2.06,0,0,0-.567-1.559,2,2,0,0,0-1.444-.545,2.075,2.075,0,0,0-1.571.6,2.472,2.472,0,0,0-.578,1.78v6.308h-3.467V151.324h3.467v1.087A3.834,3.834,0,0,1,450.637,151Z" transform="translate(-403.211 -146.147)" fill="#fff"/>
        <path id="Path_9" data-name="Path 9" d="M485.586,140.547a2.063,2.063,0,1,1,.612-1.467A2,2,0,0,1,485.586,140.547Zm-3.2,13.186V142.176h3.467v11.556Z" transform="translate(-428.152 -137)" fill="#fff"/>
        <path id="Path_10" data-name="Path 10" d="M502.291,154.7c0,.232.2.419.59.567s.867.292,1.421.438a12.748,12.748,0,0,1,1.663.566,3.376,3.376,0,0,1,1.422,1.143,3.28,3.28,0,0,1,.589,2,3.223,3.223,0,0,1-1.388,2.832,5.874,5.874,0,0,1-3.42.959q-3.651,0-4.969-2.75l3.005-1.711a1.881,1.881,0,0,0,1.964,1.363q1.248,0,1.248-.716c0-.23-.2-.422-.589-.577a13.4,13.4,0,0,0-1.421-.451,11.717,11.717,0,0,1-1.664-.577,3.549,3.549,0,0,1-1.421-1.122,2.968,2.968,0,0,1-.589-1.87,3.315,3.315,0,0,1,1.306-2.8,5.176,5.176,0,0,1,3.224-.993,5.431,5.431,0,0,1,2.611.635,4.907,4.907,0,0,1,1.9,1.838l-2.958,1.6a1.707,1.707,0,0,0-1.548-1.019Q502.291,154.05,502.291,154.7Z" transform="translate(-438.713 -146.147)" fill="#fff"/>
        <path id="Path_11" data-name="Path 11" d="M536.128,163.2a6.1,6.1,0,1,1,0-12.2,6.017,6.017,0,0,1,3.062.809,5.723,5.723,0,0,1,2.161,2.151l-3.028,1.756a2.271,2.271,0,0,0-2.242-1.295,2.522,2.522,0,0,0-1.872.751,2.888,2.888,0,0,0,0,3.86,2.521,2.521,0,0,0,1.872.751,2.243,2.243,0,0,0,2.242-1.294l3.028,1.733a5.7,5.7,0,0,1-2.149,2.173A6,6,0,0,1,536.128,163.2Z" transform="translate(-459.493 -146.147)" fill="#fff"/>
        <path id="Path_12" data-name="Path 12" d="M568.884,158.488a2.616,2.616,0,0,0,2.774,1.617,2.869,2.869,0,0,0,2.218-.877l2.773,1.594a5.805,5.805,0,0,1-5.038,2.381,6.313,6.313,0,0,1-4.657-1.735,6.1,6.1,0,0,1,4.4-10.469,5.577,5.577,0,0,1,4.195,1.744,6.044,6.044,0,0,1,1.677,4.358,6.616,6.616,0,0,1-.139,1.386Zm-.069-2.587h4.968a2.3,2.3,0,0,0-2.449-1.827A2.344,2.344,0,0,0,568.815,155.9Z" transform="translate(-482.496 -146.147)" fill="#fff"/>
        <path id="Path_13" data-name="Path 13" d="M612.519,151a4.131,4.131,0,0,1,3.086,1.272,4.826,4.826,0,0,1,1.236,3.513v7.095h-3.466v-6.587a2.059,2.059,0,0,0-.567-1.559,2,2,0,0,0-1.444-.545,2.071,2.071,0,0,0-1.57.6,2.47,2.47,0,0,0-.579,1.78v6.308h-3.466V151.324h3.466v1.087A3.834,3.834,0,0,1,612.519,151Z" transform="translate(-508.983 -146.147)" fill="#fff"/>
        <path id="Path_14" data-name="Path 14" d="M649.508,149.165h-2.379v4.09a.819.819,0,0,0,.555.879,5.469,5.469,0,0,0,1.825.116v3.142q-3.306.346-4.575-.635t-1.272-3.5v-4.09h-1.849v-3.329h1.849v-2.2l3.468-1.04v3.235h2.379Z" transform="translate(-532.547 -140.659)" fill="#fff"/>
        <path id="Path_15" data-name="Path 15" d="M674.357,153.557a2.844,2.844,0,0,1,1.306-1.7,4.132,4.132,0,0,1,2.162-.589V155.2a3.464,3.464,0,0,0-2.37.427,2.336,2.336,0,0,0-1.1,2.207v5.223h-3.466V151.5h3.466Z" transform="translate(-551.547 -146.323)" fill="#fff"/>
        <path id="Path_16" data-name="Path 16" d="M702.773,151.934h3.466V163.49h-3.466V162.4a3.835,3.835,0,0,1-3.3,1.411,4.125,4.125,0,0,1-3.086-1.272,4.816,4.816,0,0,1-1.236-3.513v-7.1h3.466v6.587a2.051,2.051,0,0,0,.568,1.559,2,2,0,0,0,1.444.545,2.076,2.076,0,0,0,1.57-.6,2.471,2.471,0,0,0,.579-1.78Z" transform="translate(-567.394 -146.758)" fill="#fff"/>
        <path id="Path_17" data-name="Path 17" d="M747.649,151a4.124,4.124,0,0,1,3.188,1.306,4.937,4.937,0,0,1,1.2,3.479v7.095h-3.468v-6.8a2.085,2.085,0,0,0-.427-1.386,1.525,1.525,0,0,0-1.236-.51,1.621,1.621,0,0,0-1.329.579,2.446,2.446,0,0,0-.474,1.594v6.518h-3.466v-6.8a2.086,2.086,0,0,0-.429-1.386,1.525,1.525,0,0,0-1.236-.51,1.623,1.623,0,0,0-1.329.579,2.446,2.446,0,0,0-.474,1.594v6.518h-3.466V151.324h3.466v1.062a3.481,3.481,0,0,1,3.1-1.386,3.4,3.4,0,0,1,3.027,1.525A3.8,3.8,0,0,1,747.649,151Z" transform="translate(-593.243 -146.147)" fill="#fff"/>
      </g>
      <path id="Path_18" data-name="Path 18" d="M333.046,214.8a7.493,7.493,0,0,1,5.6,2.322,8.5,8.5,0,0,1,0,11.533,7.494,7.494,0,0,1-5.6,2.323h-6.471V214.8Zm0,12.62a4.118,4.118,0,0,0,3.109-1.238,5.153,5.153,0,0,0,0-6.587,4.127,4.127,0,0,0-3.109-1.235h-2.773v9.06Z" transform="translate(-326.575 -187.835)" fill="#fff"/>
      <path id="Path_19" data-name="Path 19" d="M381.13,227.526H384.6v11.555H381.13V238a4.319,4.319,0,0,1-3.444,1.41,5.106,5.106,0,0,1-3.906-1.768,6.612,6.612,0,0,1,0-8.667,5.106,5.106,0,0,1,3.906-1.768,4.318,4.318,0,0,1,3.444,1.411Zm-4.738,7.835a2.972,2.972,0,0,0,3.976,0,3.156,3.156,0,0,0,0-4.114,2.972,2.972,0,0,0-3.976,0,3.156,3.156,0,0,0,0,4.114Z" transform="translate(-356.361 -195.937)" fill="#fff"/>
      <path id="Path_20" data-name="Path 20" d="M420.743,225.367h-2.38v4.09a.82.82,0,0,0,.555.879,5.476,5.476,0,0,0,1.826.116v3.142q-3.306.346-4.576-.635t-1.271-3.5v-4.09h-1.849v-3.329H414.9v-2.2l3.467-1.04v3.236h2.38Z" transform="translate(-383.075 -190.448)" fill="#fff"/>
      <path id="Path_21" data-name="Path 21" d="M448.7,227.526h3.467v11.555H448.7V238a4.318,4.318,0,0,1-3.443,1.41,5.107,5.107,0,0,1-3.906-1.768,6.613,6.613,0,0,1,0-8.667,5.107,5.107,0,0,1,3.906-1.768,4.317,4.317,0,0,1,3.443,1.411Zm-4.738,7.835a2.972,2.972,0,0,0,3.976,0,3.157,3.157,0,0,0,0-4.114,2.972,2.972,0,0,0-3.976,0,3.156,3.156,0,0,0,0,4.114Z" transform="translate(-400.514 -195.937)" fill="#fff"/>
      <g id="Group_2" data-name="Group 2" transform="translate(83.19 26.413)">
        <path id="Path_22" data-name="Path 22" d="M582.759,214.8v16.177h-3.7v-9.406l-4.182,6.864h-.418l-4.182-6.864v9.406h-3.7V214.8h3.7l4.391,7.187,4.39-7.187Z" transform="translate(-566.582 -214.247)" fill="#fff"/>
        <path id="Path_23" data-name="Path 23" d="M628.73,227.526H632.2v11.555H628.73V238a4.322,4.322,0,0,1-3.444,1.41,5.1,5.1,0,0,1-3.906-1.768,6.61,6.61,0,0,1,0-8.667,5.1,5.1,0,0,1,3.906-1.768,4.321,4.321,0,0,1,3.444,1.411Zm-4.738,7.835a2.972,2.972,0,0,0,3.976,0,3.156,3.156,0,0,0,0-4.114,2.972,2.972,0,0,0-3.976,0,3.156,3.156,0,0,0,0,4.114Z" transform="translate(-601.329 -222.349)" fill="#fff"/>
        <path id="Path_24" data-name="Path 24" d="M670.468,227.526h3.466v11.555h-3.466V238a4.321,4.321,0,0,1-3.444,1.41,5.1,5.1,0,0,1-3.906-1.768,6.61,6.61,0,0,1,0-8.667,5.1,5.1,0,0,1,3.906-1.768,4.32,4.32,0,0,1,3.444,1.411Zm-4.738,7.835a2.972,2.972,0,0,0,3.976,0,3.156,3.156,0,0,0,0-4.114,2.972,2.972,0,0,0-3.976,0,3.157,3.157,0,0,0,0,4.114Z" transform="translate(-628.6 -222.349)" fill="#fff"/>
        <path id="Path_25" data-name="Path 25" d="M710.083,225.367H707.7v4.09a.82.82,0,0,0,.555.879,5.482,5.482,0,0,0,1.826.116v3.142q-3.306.346-4.577-.635t-1.27-3.5v-4.09h-1.849v-3.329h1.849v-2.2l3.466-1.04v3.236h2.381Z" transform="translate(-655.315 -216.861)" fill="#fff"/>
        <path id="Path_26" data-name="Path 26" d="M732.839,230.9c0,.232.2.419.59.568s.868.292,1.422.438a12.711,12.711,0,0,1,1.664.566,3.376,3.376,0,0,1,1.422,1.143,3.283,3.283,0,0,1,.588,2,3.225,3.225,0,0,1-1.386,2.833,5.878,5.878,0,0,1-3.421.959q-3.651,0-4.969-2.75l3.005-1.711a1.881,1.881,0,0,0,1.964,1.362q1.248,0,1.248-.716c0-.23-.2-.423-.589-.577a13.4,13.4,0,0,0-1.422-.452,11.667,11.667,0,0,1-1.664-.577,3.555,3.555,0,0,1-1.422-1.122,2.972,2.972,0,0,1-.589-1.87,3.315,3.315,0,0,1,1.306-2.8,5.175,5.175,0,0,1,3.224-.993,5.434,5.434,0,0,1,2.611.635,4.9,4.9,0,0,1,1.894,1.838l-2.958,1.6a1.707,1.707,0,0,0-1.548-1.019Q732.839,230.252,732.839,230.9Z" transform="translate(-672.54 -222.349)" fill="#fff"/>
        <path id="Path_27" data-name="Path 27" d="M766.677,239.406a6.1,6.1,0,1,1,0-12.2,6.012,6.012,0,0,1,3.062.809,5.724,5.724,0,0,1,2.162,2.15l-3.028,1.756a2.272,2.272,0,0,0-2.243-1.295,2.52,2.52,0,0,0-1.871.751,2.886,2.886,0,0,0,0,3.859,2.52,2.52,0,0,0,1.871.751,2.245,2.245,0,0,0,2.243-1.295l3.028,1.733a5.711,5.711,0,0,1-2.149,2.173A6,6,0,0,1,766.677,239.406Z" transform="translate(-693.32 -222.349)" fill="#fff"/>
        <path id="Path_28" data-name="Path 28" d="M804.775,219.1a4.136,4.136,0,0,1,3.086,1.272,4.824,4.824,0,0,1,1.236,3.513v7.095H805.63v-6.587a2.059,2.059,0,0,0-.566-1.559,2,2,0,0,0-1.445-.545,2.078,2.078,0,0,0-1.572.6,2.472,2.472,0,0,0-.577,1.78v6.308H798V214.8h3.468v5.709A3.833,3.833,0,0,1,804.775,219.1Z" transform="translate(-717.789 -214.247)" fill="#fff"/>
        <path id="Path_29" data-name="Path 29" d="M844.5,227.526h3.468v11.555H844.5V238a4.315,4.315,0,0,1-3.442,1.41,5.109,5.109,0,0,1-3.908-1.768,6.615,6.615,0,0,1,0-8.667,5.109,5.109,0,0,1,3.908-1.768,4.314,4.314,0,0,1,3.442,1.411Zm-4.738,7.835a2.972,2.972,0,0,0,3.975,0,3.156,3.156,0,0,0,0-4.114,2.972,2.972,0,0,0-3.975,0,3.156,3.156,0,0,0,0,4.114Z" transform="translate(-742.31 -222.349)" fill="#fff"/>
        <path id="Path_30" data-name="Path 30" d="M885.865,227.2a5.107,5.107,0,0,1,3.906,1.768,6.615,6.615,0,0,1,0,8.667,5.107,5.107,0,0,1-3.906,1.768,4.317,4.317,0,0,1-3.444-1.41V243.7h-3.468V227.526h3.468v1.087A4.316,4.316,0,0,1,885.865,227.2Zm-2.67,8.159a2.942,2.942,0,0,0,3.953,0,3.121,3.121,0,0,0,0-4.114,2.942,2.942,0,0,0-3.953,0,3.121,3.121,0,0,0,0,4.114Z" transform="translate(-770.682 -222.349)" fill="#fff"/>
        <path id="Path_31" data-name="Path 31" d="M927.524,227.2a5.108,5.108,0,0,1,3.906,1.768,6.615,6.615,0,0,1,0,8.667,5.108,5.108,0,0,1-3.906,1.768,4.316,4.316,0,0,1-3.443-1.41V243.7h-3.468V227.526h3.468v1.087A4.315,4.315,0,0,1,927.524,227.2Zm-2.67,8.159a2.943,2.943,0,0,0,3.953,0,3.121,3.121,0,0,0,0-4.114,2.943,2.943,0,0,0-3.953,0,3.122,3.122,0,0,0,0,4.114Z" transform="translate(-797.901 -222.349)" fill="#fff"/>
        <path id="Path_32" data-name="Path 32" d="M964.667,216.749a2.063,2.063,0,1,1,.612-1.467A2,2,0,0,1,964.667,216.749Zm-3.2,13.185V218.379h3.467v11.555Z" transform="translate(-824.367 -213.202)" fill="#fff"/>
        <path id="Path_33" data-name="Path 33" d="M976.94,229.934V218.379h3.466v11.555a5.124,5.124,0,0,1-1.295,3.906,5.279,5.279,0,0,1-4.02,1.04v-3.329a1.968,1.968,0,0,0,1.409-.335A1.617,1.617,0,0,0,976.94,229.934Zm3.2-13.185a2.063,2.063,0,1,1,.612-1.467A2,2,0,0,1,980.14,216.749Z" transform="translate(-833.496 -213.202)" fill="#fff"/>
      </g>
    </g>
  </g>
</svg>
